<svg width="134" height="21" viewBox="0 0 134 21" fill="none" xmlns="http://www.w3.org/2000/svg">
<path d="M14.98 0.399999V5.244H10.136V20H5.124V5.244H0.28V0.399999H14.98ZM25.1418 5.608C26.6538 5.608 27.8858 6.13067 28.8378 7.176C29.8085 8.20267 30.2938 9.68667 30.2938 11.628V20H25.6458V12.216C25.6458 11.488 25.4498 10.9373 25.0578 10.564C24.6845 10.1907 24.1805 10.004 23.5458 10.004C22.8178 10.004 22.2485 10.228 21.8378 10.676C21.4458 11.1053 21.2498 11.7307 21.2498 12.552V20H16.6018V0.399999H21.2498V7.4C22.0898 6.20533 23.3871 5.608 25.1418 5.608ZM36.9333 14.708C37.4 15.8467 38.4453 16.416 40.0693 16.416C41.0773 16.416 41.9266 16.0893 42.6173 15.436L45.9773 17.788C44.596 19.524 42.5893 20.392 39.9573 20.392C37.5866 20.392 35.6826 19.7013 34.2453 18.32C32.8266 16.92 32.1173 15.156 32.1173 13.028C32.1173 10.9187 32.8173 9.15467 34.2173 7.736C35.6173 6.31733 37.4 5.608 39.5653 5.608C41.656 5.608 43.3826 6.308 44.7453 7.708C46.108 9.108 46.7893 10.8627 46.7893 12.972C46.7893 13.588 46.724 14.1667 46.5933 14.708H36.9333ZM36.8773 11.488H42.2533C41.88 10.1813 41.0026 9.528 39.6213 9.528C38.184 9.528 37.2693 10.1813 36.8773 11.488ZM66.1332 0.399999H71.1172V20H67.2532L60.3372 10.144V20H55.3252V0.399999H59.2172L66.1332 10.256V0.399999ZM80.8277 20.392C78.7557 20.392 76.9917 19.6827 75.5357 18.264C74.0797 16.8267 73.3517 15.072 73.3517 13C73.3517 10.928 74.0797 9.18267 75.5357 7.764C76.9917 6.32667 78.7557 5.608 80.8277 5.608C82.9184 5.608 84.6824 6.32667 86.1197 7.764C87.5757 9.18267 88.3037 10.928 88.3037 13C88.3037 15.072 87.5757 16.8267 86.1197 18.264C84.6824 19.6827 82.9184 20.392 80.8277 20.392ZM80.8277 15.912C81.649 15.912 82.321 15.6413 82.8437 15.1C83.385 14.5587 83.6557 13.8587 83.6557 13C83.6557 12.1413 83.385 11.4413 82.8437 10.9C82.321 10.3587 81.649 10.088 80.8277 10.088C80.025 10.088 79.353 10.3587 78.8117 10.9C78.289 11.4413 78.0277 12.1413 78.0277 13C78.0277 13.8587 78.289 14.5587 78.8117 15.1C79.353 15.6413 80.025 15.912 80.8277 15.912ZM94.9959 8.604C95.2572 7.68933 95.7799 6.98 96.5639 6.476C97.3479 5.972 98.2252 5.72 99.1959 5.72V10.872C98.1319 10.704 97.1612 10.9 96.2839 11.46C95.4252 12.02 94.9959 12.9347 94.9959 14.204V20H90.3479V6H94.9959V8.604ZM109.993 10.452H107.081V14.512C107.081 15.128 107.305 15.5107 107.753 15.66C108.201 15.8093 108.947 15.856 109.993 15.8V20C107.211 20.336 105.251 20.084 104.113 19.244C102.993 18.3853 102.433 16.8453 102.433 14.624V10.452H100.333V6H102.433V3.48L107.081 2.08V6H109.993V10.452ZM120.681 5.608C122.193 5.608 123.425 6.13067 124.377 7.176C125.348 8.20267 125.833 9.68667 125.833 11.628V20H121.185V12.216C121.185 11.488 120.989 10.9373 120.597 10.564C120.224 10.1907 119.72 10.004 119.085 10.004C118.357 10.004 117.788 10.228 117.377 10.676C116.985 11.1053 116.789 11.7307 116.789 12.552V20H112.141V0.399999H116.789V7.4C117.629 6.20533 118.926 5.608 120.681 5.608ZM131.072 20.392C130.25 20.392 129.55 20.112 128.972 19.552C128.412 18.9733 128.132 18.2827 128.132 17.48C128.132 16.6773 128.421 15.996 129 15.436C129.578 14.8573 130.269 14.568 131.072 14.568C131.874 14.568 132.556 14.8573 133.116 15.436C133.694 15.996 133.984 16.6773 133.984 17.48C133.984 18.2827 133.694 18.9733 133.116 19.552C132.556 20.112 131.874 20.392 131.072 20.392Z" fill="#0F2D47"/>
</svg>
